<svg version="1.1" id="Layer_1" xmlns="http://www.w3.org/2000/svg" xmlns:xlink="http://www.w3.org/1999/xlink" x="0px" y="0px"
	 width="100%" viewBox="0 0 786 730" enable-background="new 0 0 786 730" xml:space="preserve">
<path fill="#000000" opacity="1.000000" stroke="none" 
	d="
M527.000000,731.000000 
	C351.333344,731.000000 176.166672,731.000000 1.000000,731.000000 
	C1.000000,487.666656 1.000000,244.333328 1.000000,1.000000 
	C263.000000,1.000000 525.000000,1.000000 787.000000,1.000000 
	C787.000000,244.333328 787.000000,487.666656 787.000000,731.000000 
	C700.500000,731.000000 614.000000,731.000000 527.000000,731.000000 
M456.024261,310.975250 
	C456.024261,310.975250 456.106506,310.969116 455.926727,310.456024 
	C455.626343,310.270660 455.325989,310.085327 455.022003,309.977417 
	C455.022003,309.977417 455.099365,309.972687 454.927399,309.456451 
	C454.627289,309.269958 454.327179,309.083466 454.023590,308.976227 
	C454.023590,308.976227 454.102753,308.970886 453.937012,308.449402 
	C453.634430,308.264252 453.331848,308.079102 453.025085,307.974548 
	C453.025085,307.974548 453.105652,307.969238 452.937317,307.448669 
	C452.634613,307.263855 452.331909,307.079041 452.035004,306.970978 
	C452.035004,306.970978 452.106262,306.941864 452.020020,306.271027 
	C451.019196,305.137726 450.018372,304.004425 448.977020,302.441376 
	C448.977020,302.441376 448.837738,302.032837 448.913605,301.490143 
	C448.620758,301.293915 448.327911,301.097687 448.025665,300.981659 
	C448.025665,300.981659 448.106415,300.982727 448.006592,300.349670 
	C447.675934,299.866516 447.345276,299.383331 446.711182,298.236664 
	C445.940826,296.479492 444.948364,294.784454 444.436188,292.955017 
	C441.176697,281.311676 438.023102,269.638672 434.977051,257.138977 
	C434.665375,255.039612 434.353699,252.940247 433.988708,250.401093 
	C433.988708,250.401093 433.834503,249.985764 433.970795,249.070007 
	C433.698029,240.387115 433.425262,231.704224 433.787415,222.738007 
	C436.011749,221.451340 438.294739,220.255463 440.450836,218.863098 
	C453.184998,210.639450 462.600342,199.379028 467.657471,185.267685 
	C470.689484,176.807205 471.413269,167.500458 472.919556,158.531265 
	C473.166260,157.062119 471.895508,155.399124 471.665436,153.777573 
	C470.943909,148.692474 471.287567,143.256897 469.581116,138.550873 
	C465.583374,127.526199 460.329346,117.241753 451.008026,109.247391 
	C443.960083,103.202774 437.248169,97.152328 428.392059,93.686218 
	C413.240601,87.756233 397.970703,86.321396 382.319458,91.047363 
	C372.149506,94.118240 362.755554,98.721710 354.329926,106.232437 
	C353.857391,106.805000 353.384857,107.377563 352.981323,107.979858 
	C352.981323,107.979858 352.972687,107.905197 352.456329,108.072052 
	C352.274292,108.372734 352.092255,108.673416 351.982452,108.983002 
	C351.982452,108.983002 351.974854,108.910667 351.447815,109.078522 
	C351.248627,109.379959 351.049408,109.681404 350.422943,110.113800 
	C350.150421,110.288429 350.003723,110.537239 349.466370,111.058815 
	C349.286133,111.367271 349.105927,111.675728 348.992554,111.992584 
	C348.992554,111.992584 348.964050,111.931519 348.361633,112.180046 
	C347.876770,113.106270 347.391907,114.032494 346.978424,114.978867 
	C346.978424,114.978867 346.973724,114.904831 346.457214,115.074310 
	C346.274841,115.375580 346.092468,115.676849 345.983093,115.982910 
	C345.983093,115.982910 345.976471,115.910019 345.465240,116.083992 
	C345.284119,116.383369 345.102997,116.682747 344.990417,116.989868 
	C344.990417,116.989868 344.974457,116.922722 344.464050,117.095291 
	C344.371063,117.408974 344.278046,117.722656 344.033508,118.443916 
	C344.033508,118.443916 343.980347,118.875481 343.465179,119.066154 
	C343.280212,119.370438 343.095276,119.674721 342.982971,119.981972 
	C342.982971,119.981972 342.968140,119.910774 342.440521,120.081093 
	C342.351227,120.404472 342.261963,120.727852 342.036285,121.450500 
	C342.036285,121.450500 341.983215,121.869072 341.476837,122.075577 
	C341.288483,122.376976 341.100128,122.678368 340.982971,122.989372 
	C340.982971,122.989372 340.958557,122.921822 340.321503,123.225922 
	C339.505920,125.141708 338.690369,127.057495 337.235962,129.330414 
	C335.475433,135.844086 333.714905,142.357773 331.210236,149.344254 
	C331.503998,157.530823 331.797729,165.717377 332.114960,174.687927 
	C333.411011,178.645584 334.436035,182.718323 336.058136,186.537506 
	C339.708984,195.133347 344.373657,203.096771 351.982880,209.728012 
	C352.647858,210.194290 353.312836,210.660583 354.096741,211.564468 
	C354.268677,211.843842 354.518005,211.998230 355.043549,212.546326 
	C355.352814,212.728668 355.662079,212.911026 355.979950,213.020203 
	C355.979950,213.020203 355.907196,213.031647 356.069977,213.548203 
	C356.370331,213.729050 356.670654,213.909882 356.981842,214.014633 
	C356.981842,214.014633 356.916992,214.055893 357.187866,214.699341 
	C360.447357,216.797058 363.873810,218.684692 366.893585,221.084122 
	C368.331757,222.226837 369.973572,224.414413 369.857910,226.007828 
	C368.839874,240.030762 367.446655,254.026474 366.023224,268.652374 
	C365.981384,269.075226 365.939545,269.498047 365.213257,270.320526 
	C364.865967,272.893005 364.518677,275.465515 363.816406,278.712311 
	C363.201416,281.102051 362.586456,283.491791 361.319702,286.222412 
	C360.937408,287.830170 360.555084,289.437927 360.035522,291.444611 
	C360.035522,291.444611 359.980042,291.862823 359.354614,292.169250 
	C358.869568,293.430695 358.384491,294.692139 357.973846,295.987091 
	C357.973846,295.987091 357.946014,295.910370 357.307892,296.213531 
	C356.508301,298.129150 355.708710,300.044769 354.980743,301.987701 
	C354.980743,301.987701 354.955719,301.915283 354.341461,302.161133 
	C353.866119,303.095398 353.390778,304.029694 352.983307,304.986694 
	C352.983307,304.986694 352.978394,304.915283 352.454041,305.067627 
	C352.271057,305.369995 352.088104,305.672333 351.979309,305.979584 
	C351.979309,305.979584 351.974182,305.905396 351.452667,306.066376 
	C351.264801,306.366882 351.076935,306.667389 350.967957,306.970947 
	C350.967957,306.970947 350.959442,306.892426 350.433777,307.059937 
	C350.340332,307.380127 350.246857,307.700348 350.027618,308.442047 
	C350.027618,308.442047 349.977814,308.879150 349.286407,309.005249 
	C347.493408,310.319641 345.700439,311.634033 343.979156,312.974365 
	C343.979156,312.974365 343.969849,312.898682 343.445038,313.058563 
	C343.260437,313.362335 343.075867,313.666107 342.968201,313.964569 
	C342.968201,313.964569 342.945404,313.890930 342.135437,313.976990 
	C340.754974,314.996674 338.502625,315.782349 338.154572,317.079102 
	C337.029510,321.270996 336.604431,325.650757 335.978882,329.985107 
	C335.978882,329.985107 335.967194,329.911682 335.443359,330.082062 
	C335.350677,330.403320 335.257965,330.724609 335.025421,331.436859 
	C335.025421,331.436859 334.978363,331.849457 334.473297,332.066742 
	C334.371674,332.386200 334.270050,332.705658 334.022491,333.430908 
	C334.022491,333.430908 333.977295,333.859802 333.367249,334.137146 
	C332.870087,335.084930 332.372925,336.032715 331.436951,337.108734 
	C331.156830,337.284973 331.004211,337.538086 330.466187,338.065735 
	C330.279297,338.369659 330.092438,338.673584 329.979309,338.980896 
	C329.979309,338.980896 329.954956,338.911194 329.395508,339.126862 
	C328.902039,339.737122 328.408600,340.347412 327.983765,340.982361 
	C327.983765,340.982361 327.977478,340.909729 327.452271,341.079590 
	C327.253174,341.380249 327.054077,341.680878 326.435608,342.023041 
	C326.435608,342.023041 326.038391,342.163757 325.495270,342.087036 
	C325.300720,342.380554 325.106171,342.674072 324.982666,342.982727 
	C324.982666,342.982727 324.973969,342.910614 324.451599,343.067017 
	C324.270782,343.369781 324.089966,343.672546 323.982971,343.977509 
	C323.982971,343.977509 323.955109,343.909088 323.228485,343.994659 
	C320.773804,345.321381 318.319092,346.648102 315.433838,348.027313 
	C315.433838,348.027313 315.023193,348.166992 314.480011,348.093353 
	C314.280731,348.385620 314.081451,348.677887 313.109497,349.012634 
	C307.464539,351.775299 301.610229,354.192841 296.258911,357.439484 
	C293.382172,359.184753 291.368774,362.352997 288.325134,365.184662 
	C287.514008,367.105957 286.702850,369.027252 285.968628,370.979767 
	C285.968628,370.979767 285.942627,370.900909 285.350189,371.157562 
	C285.290741,371.772949 285.231293,372.388306 285.028320,373.628754 
	C284.995850,374.054901 284.963379,374.481018 284.220764,375.337830 
	C284.808380,378.939117 285.395966,382.540436 286.038513,386.566345 
	C286.038513,386.566345 286.172089,386.973175 286.084259,387.514587 
	C286.378174,387.708954 286.672089,387.903320 286.974213,388.021881 
	C286.974213,388.021881 286.902893,388.048859 287.003052,388.742371 
	C287.989899,390.199738 288.976746,391.657135 290.240082,393.735779 
	C293.803131,395.511749 297.366211,397.287720 301.418549,399.787628 
	C303.740753,399.859589 306.062988,399.993927 308.385193,399.994385 
	C361.784302,400.005066 415.183441,400.008820 468.582550,399.992889 
	C478.061127,399.990082 487.539703,399.893829 497.667755,399.977417 
	C498.105286,399.930786 498.542816,399.884155 499.770416,399.973907 
	C501.890015,399.322235 504.009583,398.670532 506.846619,397.990479 
	C512.916748,395.247131 516.985596,390.890869 518.759033,383.629791 
	C519.950623,375.875763 518.335632,368.895966 513.005371,362.995758 
	C513.005371,362.995758 513.073303,362.954742 512.828613,362.357666 
	C511.567505,361.211670 510.306396,360.065674 509.014862,358.988007 
	C509.014862,358.988007 509.086853,358.967712 508.914673,358.474976 
	C508.613281,358.383667 508.311859,358.292358 507.378510,357.895813 
	C505.516632,356.586029 503.792633,354.987396 501.767090,354.020447 
	C495.646637,351.098724 489.164520,348.858398 483.271271,345.553772 
	C472.936646,339.758606 465.700317,331.464264 464.963745,318.184540 
	C465.026031,316.033508 465.173401,313.818573 461.540161,314.023315 
	C461.540161,314.023315 461.130951,313.977814 460.929871,313.476044 
	C460.616638,313.371796 460.303436,313.267548 459.583221,313.013641 
	C459.583221,313.013641 459.151642,312.971466 458.937042,312.467010 
	C458.618652,312.365112 458.300232,312.263214 457.572876,312.016968 
	C457.572876,312.016968 457.141632,311.970856 456.934845,311.462463 
	C456.632324,311.272583 456.329803,311.082703 456.024261,310.975250 
M517.844788,439.988403 
	C525.401733,436.187927 528.692200,429.532440 526.861938,421.750031 
	C525.183167,414.611969 518.575562,409.019867 511.431396,409.017181 
	C438.435913,408.990021 365.440308,408.961853 292.445099,409.109039 
	C286.978851,409.120056 281.888641,411.015442 278.899750,416.426086 
	C273.292023,426.577484 277.464752,436.989014 289.375519,441.779938 
	C290.034363,441.852295 290.693176,441.987946 291.352020,441.988037 
	C364.765778,441.998840 438.179565,442.004120 511.593292,441.960388 
	C512.782593,441.959686 513.971436,441.353546 515.578979,440.979431 
	C515.578979,440.979431 515.974121,440.832581 516.518066,440.898346 
	C516.723145,440.608368 516.928162,440.318390 517.844788,439.988403 
M606.790894,513.000671 
	C597.954956,515.204468 589.439270,518.342834 582.834839,524.780518 
	C571.014587,536.302246 564.906189,549.964233 566.823975,567.056824 
	C568.025085,577.761719 571.369385,587.100525 578.548401,595.046082 
	C589.299072,606.944458 602.407715,613.129822 618.682251,610.913879 
	C622.078064,610.451477 625.643921,609.446289 628.561951,607.725586 
	C632.122375,605.625916 635.081421,602.506592 638.562317,599.610535 
	C639.494873,602.122498 639.895508,604.488098 641.158691,606.227173 
	C642.325073,607.832947 644.342224,609.683655 646.114136,609.827026 
	C651.737427,610.282043 657.431274,610.185913 663.077148,609.898010 
	C665.642212,609.767151 668.058899,608.945312 668.045776,605.236145 
	C667.945251,576.768066 668.059448,548.298950 667.841309,519.832153 
	C667.826782,517.935608 666.008057,514.939880 664.381897,514.398865 
	C660.927246,513.249329 657.045105,513.392822 653.340515,512.984802 
	C647.639709,512.356995 645.066406,515.422485 643.933655,520.582458 
	C643.498230,522.565979 642.347046,524.392395 641.411560,526.544617 
	C637.789673,523.278259 634.996826,520.457703 631.898560,518.026184 
	C624.697937,512.374939 616.406616,511.500641 606.790894,513.000671 
M226.504562,540.061035 
	C240.670044,542.548157 242.998199,545.356384 242.998886,559.961487 
	C242.999573,574.456238 242.972534,588.951050 243.012451,603.445679 
	C243.027618,608.951965 244.145996,609.992615 249.635422,609.998474 
	C254.966827,610.004150 260.308411,609.793335 265.626587,610.058533 
	C270.314117,610.292236 272.121063,608.584961 272.063629,603.763733 
	C271.865112,587.105591 272.251099,570.437561 271.859375,553.786316 
	C271.720703,547.893494 270.712799,541.797241 268.852875,536.209534 
	C262.589569,517.392944 240.097290,505.751526 220.622086,516.910278 
	C218.344101,518.215515 216.364227,520.041077 213.997238,521.811584 
	C213.997238,512.068237 214.033997,502.748383 213.982986,493.429077 
	C213.953949,488.122650 211.872818,486.073883 206.522141,486.015594 
	C201.191376,485.957520 195.856766,486.108398 190.528931,485.970734 
	C186.068710,485.855499 183.970932,487.740234 183.976395,492.287964 
	C184.021042,529.441101 184.005615,566.594299 184.000427,603.747498 
	C183.999832,608.046387 186.146698,610.050110 190.409241,610.010437 
	C195.573593,609.962463 200.738708,610.000549 205.903503,609.998657 
	C212.180283,609.996399 213.988693,608.195862 213.996338,601.822266 
	C214.013306,587.660706 214.300644,573.490601 213.895065,559.340698 
	C213.627701,550.013245 216.054398,543.075439 226.504562,540.061035 
M380.993744,552.935608 
	C378.724731,547.165466 376.965271,541.126587 374.091095,535.675537 
	C365.502167,519.386047 342.542786,509.006226 324.770233,513.115662 
	C300.425018,518.744934 285.072266,541.065002 286.743164,565.907654 
	C287.692719,580.024963 293.998932,590.918701 303.669159,599.692871 
	C315.166779,610.125000 330.014709,613.153076 345.007446,611.139465 
	C354.630768,609.846924 363.553009,605.084900 370.800964,597.866821 
	C373.740540,594.939392 373.372498,592.498352 371.209229,589.785645 
	C368.961609,586.967163 366.559265,584.262695 364.099579,581.624939 
	C360.271362,577.519592 358.125305,577.254333 353.845795,580.693481 
	C346.187195,586.848206 337.621155,588.250916 328.283112,585.981140 
	C320.850433,584.174500 315.732178,577.823914 316.366058,571.234619 
	C334.808319,571.234619 353.260773,571.128113 371.710541,571.302246 
	C376.960480,571.351746 380.971191,568.104614 380.992371,562.849121 
	C381.004456,559.850464 380.996307,556.851624 380.993744,552.935608 
M466.989838,572.979431 
	C464.882263,569.036621 463.159088,564.819702 460.584534,561.210022 
	C455.717957,554.386780 447.993256,551.786194 440.534607,549.055481 
	C436.203522,547.469849 431.571320,546.664368 427.333344,544.889893 
	C425.834412,544.262268 424.360962,541.830322 424.297913,540.168213 
	C424.259827,539.164368 426.829742,537.435303 428.445557,537.108521 
	C434.073456,535.970154 439.103790,537.340576 443.214264,541.658508 
	C445.122314,543.662903 447.674744,544.366211 449.947540,542.475281 
	C453.865540,539.215576 457.503265,535.620728 461.299683,532.212341 
	C463.896240,529.881165 463.428741,527.915833 461.109467,525.572144 
	C447.758942,512.081177 432.277222,508.870300 414.350159,514.872009 
	C401.200287,519.274353 395.673157,529.020813 395.071289,539.411072 
	C394.289307,552.909973 402.001984,563.903931 413.196320,568.035767 
	C419.644104,570.415710 426.091400,572.797119 432.528229,575.206482 
	C435.620789,576.364014 438.275421,578.810791 437.217834,581.832886 
	C436.454712,584.013489 433.181488,586.516663 430.835571,586.726501 
	C422.383423,587.482483 415.130554,584.243103 408.793610,578.515198 
	C407.722717,577.547302 404.346771,577.659973 403.101410,578.634766 
	C399.591858,581.381958 396.206604,584.531616 393.638885,588.139404 
	C392.279694,590.049072 391.453430,594.144226 392.563263,595.704773 
	C398.671417,604.293274 407.694305,610.894409 417.646332,611.075989 
	C427.723907,611.259827 438.464844,613.359131 448.571381,608.188293 
	C456.926697,603.913391 463.531189,598.508484 465.841644,589.381836 
	C467.098236,584.418274 466.669128,579.027893 466.989838,572.979431 
M514.592041,512.001892 
	C501.582397,512.003296 485.035522,520.264221 482.312622,535.892700 
	C480.210510,547.958069 487.223785,563.302734 499.063965,567.976685 
	C505.907104,570.678101 513.026978,572.692139 519.807373,575.529297 
	C521.611816,576.284302 523.473816,578.821655 523.728516,580.749573 
	C523.930359,582.277222 522.066345,584.995117 520.492676,585.629822 
	C517.990112,586.639099 514.915649,586.816406 512.171570,586.521790 
	C505.928680,585.851379 500.630463,583.064270 495.971405,578.713318 
	C494.866577,577.681580 491.450684,577.518311 490.291962,578.446350 
	C486.549835,581.443665 483.432892,585.207764 479.940979,588.535706 
	C477.411713,590.946167 478.116913,593.818237 479.534332,595.883484 
	C484.436371,603.026123 491.542969,608.183044 499.686432,609.887634 
	C508.014771,611.630798 517.015198,611.843811 525.491150,610.820007 
	C539.323059,609.149231 549.361206,601.746216 553.090271,587.468689 
	C555.202026,579.383301 554.012268,571.712891 549.973389,564.568237 
	C545.098572,555.944702 536.420593,552.398438 527.796204,549.073975 
	C523.351501,547.360657 518.536865,546.602173 514.105896,544.861267 
	C512.710815,544.313171 511.117462,541.875977 511.269531,540.484070 
	C511.410400,539.194641 513.616333,537.439758 515.166443,537.120361 
	C520.576050,536.005859 525.683960,537.000244 529.671326,541.198669 
	C532.174744,543.834595 534.945923,543.846252 537.532471,541.871094 
	C540.781128,539.390442 543.783691,536.563843 546.735718,533.723633 
	C551.149231,529.477295 551.212158,528.466187 546.718506,524.274475 
	C537.967468,516.111328 527.733398,511.505035 514.592041,512.001892 
M143.990967,611.009460 
	C154.464645,611.235535 162.561569,606.014221 169.891617,599.360107 
	C170.679855,598.644592 170.557022,595.936523 169.854065,594.743713 
	C167.235474,590.300781 164.336746,586.002502 161.275421,581.847229 
	C158.779160,578.458923 155.785782,577.730469 151.928955,580.384766 
	C149.234741,582.238892 146.033356,583.503296 142.895508,584.535889 
	C135.586899,586.941101 126.046677,583.164185 121.396858,577.029480 
	C116.862595,571.047302 116.289650,564.258484 117.187523,557.488342 
	C118.018188,551.225037 121.329063,545.404236 126.849869,542.187500 
	C135.354019,537.232544 144.060532,537.941833 152.308777,543.657776 
	C155.290817,545.724365 158.581070,545.987793 160.912033,542.551208 
	C163.979263,538.029114 167.224930,533.533325 169.477081,528.607178 
	C170.211899,526.999878 168.687729,523.458801 167.109207,521.911804 
	C164.892075,519.738831 161.751282,518.404480 158.845276,517.057068 
	C148.566437,512.291077 137.824799,511.894470 126.857704,513.991882 
	C113.747818,516.499207 104.173744,524.153687 96.706154,534.789856 
	C89.939278,544.428101 88.224922,555.364014 89.026405,566.815552 
	C90.047371,581.402954 96.673965,593.071106 108.117157,601.989929 
	C118.428169,610.026428 130.365967,612.132385 143.990967,611.009460 
M714.994629,543.500000 
	C714.995972,536.340271 715.009827,529.180481 714.994202,522.020752 
	C714.983765,517.236572 712.048096,514.144409 707.191589,514.033875 
	C702.032593,513.916382 696.868164,513.950562 691.707458,514.021606 
	C687.395203,514.080994 685.029907,516.370850 685.023376,520.683899 
	C684.981567,548.490295 685.005859,576.296814 684.994263,604.103271 
	C684.992615,608.110840 686.950623,610.028992 690.946716,610.005493 
	C696.607666,609.972168 702.268982,610.007690 707.930115,609.993896 
	C713.201965,609.981079 714.987732,608.223694 714.991882,602.943542 
	C715.007019,583.462341 714.996033,563.981201 714.994629,543.500000 
M685.003174,498.059906 
	C686.212585,499.705841 687.277466,502.625885 688.655823,502.782257 
	C695.479919,503.556549 702.418274,504.110474 709.251282,503.688477 
	C712.700195,503.475525 715.011597,500.285187 714.999817,496.288696 
	C714.986084,491.633972 714.889587,486.975983 715.031860,482.325592 
	C715.128052,479.178406 714.051025,477.126953 710.744507,476.963440 
	C703.700928,476.615204 696.632202,476.010010 689.611816,476.333740 
	C686.788086,476.463928 684.622253,478.872070 684.917114,482.682495 
	C685.287903,487.474701 685.004456,492.317535 685.003174,498.059906 
z"/>
<path fill="#3FC1C9" opacity="1.000000" stroke="none" 
	d="
M354.837708,105.986832 
	C362.755554,98.721710 372.149506,94.118240 382.319458,91.047363 
	C397.970703,86.321396 413.240601,87.756233 428.392059,93.686218 
	C437.248169,97.152328 443.960083,103.202774 451.008026,109.247391 
	C460.329346,117.241753 465.583374,127.526199 469.581116,138.550873 
	C471.287567,143.256897 470.943909,148.692474 471.665436,153.777573 
	C471.895508,155.399124 473.166260,157.062119 472.919556,158.531265 
	C471.413269,167.500458 470.689484,176.807205 467.657471,185.267685 
	C462.600342,199.379028 453.184998,210.639450 440.450836,218.863098 
	C438.294739,220.255463 436.011749,221.451340 433.144836,223.148071 
	C432.946350,232.367355 433.390411,241.176559 433.834503,249.985764 
	C433.834503,249.985764 433.988708,250.401093 434.000488,251.044037 
	C434.286377,253.783127 434.560516,255.879303 434.834625,257.975464 
	C438.023102,269.638672 441.176697,281.311676 444.436188,292.955017 
	C444.948364,294.784454 445.940826,296.479492 446.877472,298.885681 
	C447.397980,300.017395 447.752197,300.500061 448.106415,300.982727 
	C448.106415,300.982727 448.025665,300.981659 448.099335,301.171021 
	C448.321960,301.656342 448.543518,301.880463 448.837738,302.032837 
	C448.837738,302.032837 448.977020,302.441376 448.986786,303.058960 
	C450.033112,304.764984 451.069672,305.853424 452.106262,306.941864 
	C452.106262,306.941864 452.035004,306.970978 452.136322,307.178223 
	C452.526978,307.580078 452.816315,307.774658 453.105652,307.969238 
	C453.105652,307.969238 453.025085,307.974548 453.131042,308.179810 
	C453.525574,308.580322 453.814148,308.775604 454.102753,308.970886 
	C454.102753,308.970886 454.023590,308.976227 454.131073,309.180298 
	C454.525482,309.580505 454.812439,309.776581 455.099365,309.972687 
	C455.099365,309.972687 455.022003,309.977417 455.131439,310.181854 
	C455.529419,310.580566 455.817963,310.774841 456.106506,310.969116 
	C456.106506,310.969116 456.024261,310.975250 456.138092,311.180969 
	C456.548492,311.581421 456.845062,311.776123 457.141632,311.970856 
	C457.141632,311.970856 457.572876,312.016968 457.924561,312.286011 
	C458.523590,312.787292 458.815399,312.926117 459.151642,312.971466 
	C459.151642,312.971466 459.583221,313.013641 459.930115,313.282898 
	C460.517883,313.781891 460.802521,313.923767 461.130951,313.977814 
	C461.130951,313.977814 461.540161,314.023315 461.813171,314.398621 
	C462.996552,316.164307 463.906952,317.554718 464.817352,318.945099 
	C465.700317,331.464264 472.936646,339.758606 483.271271,345.553772 
	C489.164520,348.858398 495.646637,351.098724 501.767090,354.020447 
	C503.792633,354.987396 505.516632,356.586029 507.829163,358.232361 
	C508.506683,358.787079 508.775696,358.920013 509.086853,358.967712 
	C509.086853,358.967712 509.014862,358.988007 509.018982,359.337769 
	C510.373169,360.776581 511.723236,361.865662 513.073303,362.954742 
	C513.073303,362.954742 513.005371,362.995758 512.972229,363.312378 
	C513.034485,364.981750 512.638550,366.681213 513.307495,367.629181 
	C516.824585,372.613129 518.585510,378.000977 518.038757,384.104004 
	C516.985596,390.890869 512.916748,395.247131 506.088806,397.994537 
	C503.214111,398.611572 501.097229,399.224548 498.980347,399.837524 
	C498.542816,399.884155 498.105286,399.930786 497.016296,399.649475 
	C494.547363,399.209534 492.729980,399.000275 490.912506,398.999634 
	C437.431763,398.980804 383.951019,398.982758 330.470276,398.981445 
	C323.306183,398.981293 316.142120,398.974274 308.978027,398.985413 
	C306.295074,398.989563 303.612183,399.036316 300.929260,399.063660 
	C297.366211,397.287720 293.803131,395.511749 290.107605,393.009033 
	C290.010559,390.102234 290.368256,387.688354 286.902893,388.048859 
	C286.902893,388.048859 286.974213,388.021881 286.900940,387.832458 
	C286.681641,387.348816 286.463104,387.125519 286.172089,386.973175 
	C286.172089,386.973175 286.038513,386.566345 286.023376,385.922394 
	C285.649170,381.821350 285.290039,378.364258 284.930908,374.907166 
	C284.963379,374.481018 284.995850,374.054901 285.315308,373.114197 
	C285.715759,372.033386 285.829163,371.467133 285.942627,370.900909 
	C285.942627,370.900909 285.968628,370.979767 286.264557,370.934601 
	C287.362274,368.886017 288.164032,366.882599 288.965820,364.879181 
	C291.368774,362.352997 293.382172,359.184753 296.258911,357.439484 
	C301.610229,354.192841 307.464539,351.775299 313.725220,348.919708 
	C314.639313,348.680267 314.866760,348.460327 315.023193,348.166992 
	C315.023193,348.166992 315.433838,348.027313 316.049438,348.010559 
	C319.095062,346.632202 321.525085,345.270660 323.955109,343.909088 
	C323.955109,343.909088 323.982971,343.977509 324.189270,343.873352 
	C324.588379,343.483002 324.781189,343.196808 324.973969,342.910614 
	C324.973969,342.910614 324.982666,342.982727 325.175842,342.905975 
	C325.663116,342.678772 325.886230,342.456940 326.038391,342.163757 
	C326.038391,342.163757 326.435608,342.023041 326.896942,341.899902 
	C327.564667,341.487732 327.771088,341.198730 327.977478,340.909729 
	C327.977478,340.909729 327.983765,340.982361 328.284851,340.943451 
	C329.042267,340.240082 329.498627,339.575653 329.954956,338.911194 
	C329.954956,338.911194 329.979309,338.980896 330.187653,338.866699 
	C330.590363,338.457703 330.784760,338.162872 330.979126,337.868073 
	C331.004211,337.538086 331.156830,337.284973 332.019531,336.997955 
	C333.060547,335.878052 333.518921,334.868927 333.977295,333.859802 
	C333.977295,333.859802 334.022491,333.430908 334.291412,333.078735 
	C334.792419,332.478394 334.931763,332.186035 334.978363,331.849457 
	C334.978363,331.849457 335.025421,331.436859 335.289551,331.099426 
	C335.787842,330.525421 335.925659,330.241974 335.967194,329.911682 
	C335.967194,329.911682 335.978882,329.985107 336.308716,329.923645 
	C338.740845,324.538422 340.843140,319.214661 342.945404,313.890930 
	C342.945404,313.890930 342.968201,313.964569 343.175568,313.863892 
	C343.578583,313.475006 343.774200,313.186859 343.969849,312.898682 
	C343.969849,312.898682 343.979156,312.974365 344.333313,312.976135 
	C347.602570,313.098083 349.624420,312.065369 349.977814,308.879150 
	C349.977814,308.879150 350.027618,308.442047 350.285004,308.091187 
	C350.774414,307.503418 350.913452,307.220795 350.959442,306.892426 
	C350.959442,306.892426 350.967957,306.970947 351.174957,306.868164 
	C351.579376,306.478699 351.776794,306.192047 351.974182,305.905396 
	C351.974182,305.905396 351.979309,305.979584 352.185272,305.874054 
	C352.586945,305.484100 352.782684,305.199707 352.978394,304.915283 
	C352.978394,304.915283 352.983307,304.986694 353.304871,304.931702 
	C354.069519,303.889587 354.512604,302.902435 354.955719,301.915283 
	C354.955719,301.915283 354.980743,301.987701 355.311096,301.927673 
	C356.409668,299.881866 357.177826,297.896118 357.946014,295.910370 
	C357.946014,295.910370 357.973846,295.987091 358.309448,295.919006 
	C359.090057,294.521545 359.535065,293.192200 359.980042,291.862823 
	C359.980042,291.862823 360.035522,291.444611 360.459229,291.136902 
	C361.245758,289.179993 361.608643,287.530762 361.971497,285.881531 
	C362.586456,283.491791 363.201416,281.102051 364.344604,278.270935 
	C365.214447,275.193329 365.556061,272.557129 365.897705,269.920898 
	C365.939545,269.498047 365.981384,269.075226 366.451569,268.237000 
	C370.382202,258.102051 370.548187,247.809326 371.917236,237.735626 
	C372.584473,232.826050 372.458069,227.808609 372.745636,221.671783 
	C368.259827,219.513443 362.588409,216.784668 356.916992,214.055893 
	C356.916992,214.055893 356.981842,214.014633 356.873474,213.810364 
	C356.479156,213.414612 356.193176,213.223129 355.907196,213.031647 
	C355.907196,213.031647 355.979950,213.020203 355.864746,212.807861 
	C355.447906,212.406219 355.146332,212.216919 354.844727,212.027618 
	C354.518005,211.998230 354.268677,211.843842 353.999573,211.004501 
	C353.222961,209.973618 352.543518,209.502701 351.864105,209.031784 
	C344.373657,203.096771 339.708984,195.133347 336.058136,186.537506 
	C334.436035,182.718323 333.411011,178.645584 332.381531,174.029877 
	C332.416840,165.205017 332.185608,157.038239 331.954407,148.871445 
	C333.714905,142.357773 335.475433,135.844086 337.962708,129.147675 
	C342.759735,128.194931 340.303558,124.974266 340.958557,122.921822 
	C340.958557,122.921822 340.982971,122.989372 341.192169,122.871658 
	C341.595306,122.458992 341.789246,122.164032 341.983215,121.869064 
	C341.983215,121.869072 342.036285,121.450500 342.297424,121.107224 
	C342.788239,120.524277 342.924774,120.239891 342.968140,119.910774 
	C342.968140,119.910774 342.982971,119.981972 343.189819,119.867386 
	C343.591217,119.460358 343.785767,119.167915 343.980347,118.875473 
	C343.980347,118.875481 344.033508,118.443916 344.298920,118.099869 
	C344.791351,117.522568 344.928070,117.244865 344.974457,116.922722 
	C344.974457,116.922722 344.990417,116.989868 345.195068,116.877396 
	C345.591980,116.479958 345.784241,116.194992 345.976471,115.910019 
	C345.976471,115.910019 345.983093,115.982910 346.188080,115.873474 
	C346.586609,115.477638 346.780182,115.191238 346.973724,114.904831 
	C346.973724,114.904831 346.978424,114.978867 347.296814,114.926117 
	C348.064819,113.892761 348.514435,112.912148 348.964050,111.931519 
	C348.964050,111.931519 348.992554,111.992584 349.203186,111.873344 
	C349.603485,111.456146 349.793152,111.158195 349.982849,110.860245 
	C350.003723,110.537239 350.150421,110.288429 350.890625,109.948715 
	C351.563843,109.492645 351.769348,109.201653 351.974854,108.910660 
	C351.974854,108.910667 351.982452,108.983002 352.190002,108.875801 
	C352.589294,108.480797 352.780975,108.192993 352.972687,107.905197 
	C352.972687,107.905197 352.981323,107.979858 353.282684,107.976021 
	C354.001923,107.310402 354.419830,106.648621 354.837708,105.986832 
z"/>
<path fill="#41C1C9" opacity="1.000000" stroke="none" 
	d="
M515.974121,440.832581 
	C515.974121,440.832581 515.578979,440.979431 514.889648,440.990540 
	C439.098389,441.016907 363.996368,441.032135 288.894379,441.047363 
	C277.464752,436.989014 273.292023,426.577484 278.899750,416.426086 
	C281.888641,411.015442 286.978851,409.120056 292.445099,409.109039 
	C365.440308,408.961853 438.435913,408.990021 511.431396,409.017181 
	C518.575562,409.019867 525.183167,414.611969 526.861938,421.750031 
	C528.692200,429.532440 525.401733,436.187927 517.257568,440.081543 
	C516.366638,440.318085 516.134521,440.537415 515.974121,440.832581 
z"/>
<path fill="#F4F5F6" opacity="1.000000" stroke="none" 
	d="
M607.230713,513.002441 
	C616.406616,511.500641 624.697937,512.374939 631.898560,518.026184 
	C634.996826,520.457703 637.789673,523.278259 641.411560,526.544617 
	C642.347046,524.392395 643.498230,522.565979 643.933655,520.582458 
	C645.066406,515.422485 647.639709,512.356995 653.340515,512.984802 
	C657.045105,513.392822 660.927246,513.249329 664.381897,514.398865 
	C666.008057,514.939880 667.826782,517.935608 667.841309,519.832153 
	C668.059448,548.298950 667.945251,576.768066 668.045776,605.236145 
	C668.058899,608.945312 665.642212,609.767151 663.077148,609.898010 
	C657.431274,610.185913 651.737427,610.282043 646.114136,609.827026 
	C644.342224,609.683655 642.325073,607.832947 641.158691,606.227173 
	C639.895508,604.488098 639.494873,602.122498 638.562317,599.610535 
	C635.081421,602.506592 632.122375,605.625916 628.561951,607.725586 
	C625.643921,609.446289 622.078064,610.451477 618.682251,610.913879 
	C602.407715,613.129822 589.299072,606.944458 578.548401,595.046082 
	C571.369385,587.100525 568.025085,577.761719 566.823975,567.056824 
	C564.906189,549.964233 571.014587,536.302246 582.834839,524.780518 
	C589.439270,518.342834 597.954956,515.204468 607.230713,513.002441 
M600.032471,545.679871 
	C599.241394,547.067261 598.529419,548.507324 597.646057,549.833252 
	C592.690308,557.271973 594.176880,572.404236 600.143677,578.759521 
	C606.163391,585.171204 613.823608,586.585022 621.348938,584.569336 
	C629.006592,582.518250 635.407471,578.021423 637.183960,568.747253 
	C639.272522,557.844360 636.279846,547.131592 627.855713,542.448120 
	C618.592285,537.298035 608.633545,537.331299 600.032471,545.679871 
z"/>
<path fill="#F4F5F6" opacity="1.000000" stroke="none" 
	d="
M226.221893,540.322021 
	C216.054398,543.075439 213.627701,550.013245 213.895065,559.340698 
	C214.300644,573.490601 214.013306,587.660706 213.996338,601.822266 
	C213.988693,608.195862 212.180283,609.996399 205.903503,609.998657 
	C200.738708,610.000549 195.573593,609.962463 190.409241,610.010437 
	C186.146698,610.050110 183.999832,608.046387 184.000427,603.747498 
	C184.005615,566.594299 184.021042,529.441101 183.976395,492.287964 
	C183.970932,487.740234 186.068710,485.855499 190.528931,485.970734 
	C195.856766,486.108398 201.191376,485.957520 206.522141,486.015594 
	C211.872818,486.073883 213.953949,488.122650 213.982986,493.429077 
	C214.033997,502.748383 213.997238,512.068237 213.997238,521.811584 
	C216.364227,520.041077 218.344101,518.215515 220.622086,516.910278 
	C240.097290,505.751526 262.589569,517.392944 268.852875,536.209534 
	C270.712799,541.797241 271.720703,547.893494 271.859375,553.786316 
	C272.251099,570.437561 271.865112,587.105591 272.063629,603.763733 
	C272.121063,608.584961 270.314117,610.292236 265.626587,610.058533 
	C260.308411,609.793335 254.966827,610.004150 249.635422,609.998474 
	C244.145996,609.992615 243.027618,608.951965 243.012451,603.445679 
	C242.972534,588.951050 242.999573,574.456238 242.998886,559.961487 
	C242.998199,545.356384 240.670044,542.548157 226.221893,540.322021 
z"/>
<path fill="#F4F5F6" opacity="1.000000" stroke="none" 
	d="
M380.995544,553.394287 
	C380.996307,556.851624 381.004456,559.850464 380.992371,562.849121 
	C380.971191,568.104614 376.960480,571.351746 371.710541,571.302246 
	C353.260773,571.128113 334.808319,571.234619 316.366058,571.234619 
	C315.732178,577.823914 320.850433,584.174500 328.283112,585.981140 
	C337.621155,588.250916 346.187195,586.848206 353.845795,580.693481 
	C358.125305,577.254333 360.271362,577.519592 364.099579,581.624939 
	C366.559265,584.262695 368.961609,586.967163 371.209229,589.785645 
	C373.372498,592.498352 373.740540,594.939392 370.800964,597.866821 
	C363.553009,605.084900 354.630768,609.846924 345.007446,611.139465 
	C330.014709,613.153076 315.166779,610.125000 303.669159,599.692871 
	C293.998932,590.918701 287.692719,580.024963 286.743164,565.907654 
	C285.072266,541.065002 300.425018,518.744934 324.770233,513.115662 
	C342.542786,509.006226 365.502167,519.386047 374.091095,535.675537 
	C376.965271,541.126587 378.724731,547.165466 380.995544,553.394287 
M331.339447,536.997253 
	C324.193604,537.867737 320.156525,542.525208 316.607330,548.541931 
	C328.825043,548.541931 340.391998,548.541931 352.274445,548.541931 
	C347.633698,540.288086 341.438782,535.877991 331.339447,536.997253 
z"/>
<path fill="#F4F5F6" opacity="1.000000" stroke="none" 
	d="
M466.995087,573.404724 
	C466.669128,579.027893 467.098236,584.418274 465.841644,589.381836 
	C463.531189,598.508484 456.926697,603.913391 448.571381,608.188293 
	C438.464844,613.359131 427.723907,611.259827 417.646332,611.075989 
	C407.694305,610.894409 398.671417,604.293274 392.563263,595.704773 
	C391.453430,594.144226 392.279694,590.049072 393.638885,588.139404 
	C396.206604,584.531616 399.591858,581.381958 403.101410,578.634766 
	C404.346771,577.659973 407.722717,577.547302 408.793610,578.515198 
	C415.130554,584.243103 422.383423,587.482483 430.835571,586.726501 
	C433.181488,586.516663 436.454712,584.013489 437.217834,581.832886 
	C438.275421,578.810791 435.620789,576.364014 432.528229,575.206482 
	C426.091400,572.797119 419.644104,570.415710 413.196320,568.035767 
	C402.001984,563.903931 394.289307,552.909973 395.071289,539.411072 
	C395.673157,529.020813 401.200287,519.274353 414.350159,514.872009 
	C432.277222,508.870300 447.758942,512.081177 461.109467,525.572144 
	C463.428741,527.915833 463.896240,529.881165 461.299683,532.212341 
	C457.503265,535.620728 453.865540,539.215576 449.947540,542.475281 
	C447.674744,544.366211 445.122314,543.662903 443.214264,541.658508 
	C439.103790,537.340576 434.073456,535.970154 428.445557,537.108521 
	C426.829742,537.435303 424.259827,539.164368 424.297913,540.168213 
	C424.360962,541.830322 425.834412,544.262268 427.333344,544.889893 
	C431.571320,546.664368 436.203522,547.469849 440.534607,549.055481 
	C447.993256,551.786194 455.717957,554.386780 460.584534,561.210022 
	C463.159088,564.819702 464.882263,569.036621 466.995087,573.404724 
z"/>
<path fill="#F4F5F6" opacity="1.000000" stroke="none" 
	d="
M515.062744,512.002014 
	C527.733398,511.505035 537.967468,516.111328 546.718506,524.274475 
	C551.212158,528.466187 551.149231,529.477295 546.735718,533.723633 
	C543.783691,536.563843 540.781128,539.390442 537.532471,541.871094 
	C534.945923,543.846252 532.174744,543.834595 529.671326,541.198669 
	C525.683960,537.000244 520.576050,536.005859 515.166443,537.120361 
	C513.616333,537.439758 511.410400,539.194641 511.269531,540.484070 
	C511.117462,541.875977 512.710815,544.313171 514.105896,544.861267 
	C518.536865,546.602173 523.351501,547.360657 527.796204,549.073975 
	C536.420593,552.398438 545.098572,555.944702 549.973389,564.568237 
	C554.012268,571.712891 555.202026,579.383301 553.090271,587.468689 
	C549.361206,601.746216 539.323059,609.149231 525.491150,610.820007 
	C517.015198,611.843811 508.014771,611.630798 499.686432,609.887634 
	C491.542969,608.183044 484.436371,603.026123 479.534332,595.883484 
	C478.116913,593.818237 477.411713,590.946167 479.940979,588.535706 
	C483.432892,585.207764 486.549835,581.443665 490.291962,578.446350 
	C491.450684,577.518311 494.866577,577.681580 495.971405,578.713318 
	C500.630463,583.064270 505.928680,585.851379 512.171570,586.521790 
	C514.915649,586.816406 517.990112,586.639099 520.492676,585.629822 
	C522.066345,584.995117 523.930359,582.277222 523.728516,580.749573 
	C523.473816,578.821655 521.611816,576.284302 519.807373,575.529297 
	C513.026978,572.692139 505.907104,570.678101 499.063965,567.976685 
	C487.223785,563.302734 480.210510,547.958069 482.312622,535.892700 
	C485.035522,520.264221 501.582397,512.003296 515.062744,512.002014 
z"/>
<path fill="#F4F5F6" opacity="1.000000" stroke="none" 
	d="
M143.539963,611.009644 
	C130.365967,612.132385 118.428169,610.026428 108.117157,601.989929 
	C96.673965,593.071106 90.047371,581.402954 89.026405,566.815552 
	C88.224922,555.364014 89.939278,544.428101 96.706154,534.789856 
	C104.173744,524.153687 113.747818,516.499207 126.857704,513.991882 
	C137.824799,511.894470 148.566437,512.291077 158.845276,517.057068 
	C161.751282,518.404480 164.892075,519.738831 167.109207,521.911804 
	C168.687729,523.458801 170.211899,526.999878 169.477081,528.607178 
	C167.224930,533.533325 163.979263,538.029114 160.912033,542.551208 
	C158.581070,545.987793 155.290817,545.724365 152.308777,543.657776 
	C144.060532,537.941833 135.354019,537.232544 126.849869,542.187500 
	C121.329063,545.404236 118.018188,551.225037 117.187523,557.488342 
	C116.289650,564.258484 116.862595,571.047302 121.396858,577.029480 
	C126.046677,583.164185 135.586899,586.941101 142.895508,584.535889 
	C146.033356,583.503296 149.234741,582.238892 151.928955,580.384766 
	C155.785782,577.730469 158.779160,578.458923 161.275421,581.847229 
	C164.336746,586.002502 167.235474,590.300781 169.854065,594.743713 
	C170.557022,595.936523 170.679855,598.644592 169.891617,599.360107 
	C162.561569,606.014221 154.464645,611.235535 143.539963,611.009644 
z"/>
<path fill="#F4F5F6" opacity="1.000000" stroke="none" 
	d="
M714.994751,544.000000 
	C714.996033,563.981201 715.007019,583.462341 714.991882,602.943542 
	C714.987732,608.223694 713.201965,609.981079 707.930115,609.993896 
	C702.268982,610.007690 696.607666,609.972168 690.946716,610.005493 
	C686.950623,610.028992 684.992615,608.110840 684.994263,604.103271 
	C685.005859,576.296814 684.981567,548.490295 685.023376,520.683899 
	C685.029907,516.370850 687.395203,514.080994 691.707458,514.021606 
	C696.868164,513.950562 702.032593,513.916382 707.191589,514.033875 
	C712.048096,514.144409 714.983765,517.236572 714.994202,522.020752 
	C715.009827,529.180481 714.995972,536.340271 714.994751,544.000000 
z"/>
<path fill="#F3F5F6" opacity="1.000000" stroke="none" 
	d="
M685.003235,497.599213 
	C685.004456,492.317535 685.287903,487.474701 684.917114,482.682495 
	C684.622253,478.872070 686.788086,476.463928 689.611816,476.333740 
	C696.632202,476.010010 703.700928,476.615204 710.744507,476.963440 
	C714.051025,477.126953 715.128052,479.178406 715.031860,482.325592 
	C714.889587,486.975983 714.986084,491.633972 714.999817,496.288696 
	C715.011597,500.285187 712.700195,503.475525 709.251282,503.688477 
	C702.418274,504.110474 695.479919,503.556549 688.655823,502.782257 
	C687.277466,502.625885 686.212585,499.705841 685.003235,497.599213 
z"/>
<path fill="#63BAC9" opacity="1.000000" stroke="none" 
	d="
M289.134949,441.413635 
	C363.996368,441.032135 439.098389,441.016907 514.680420,441.015778 
	C513.971436,441.353546 512.782593,441.959686 511.593292,441.960388 
	C438.179565,442.004120 364.765778,441.998840 291.352020,441.988037 
	C290.693176,441.987946 290.034363,441.852295 289.134949,441.413635 
z"/>
<path fill="#6ABBCB" opacity="1.000000" stroke="none" 
	d="
M301.173889,399.425659 
	C303.612183,399.036316 306.295074,398.989563 308.978027,398.985413 
	C316.142120,398.974274 323.306183,398.981293 330.470276,398.981445 
	C383.951019,398.982758 437.431763,398.980804 490.912506,398.999634 
	C492.729980,399.000275 494.547363,399.209534 496.691528,399.581146 
	C487.539703,399.893829 478.061127,399.990082 468.582550,399.992889 
	C415.183441,400.008820 361.784302,400.005066 308.385193,399.994385 
	C306.062988,399.993927 303.740753,399.859589 301.173889,399.425659 
z"/>
<path fill="#59BAC7" opacity="1.000000" stroke="none" 
	d="
M357.052429,214.377625 
	C362.588409,216.784668 368.259827,219.513443 372.745636,221.671783 
	C372.458069,227.808609 372.584473,232.826050 371.917236,237.735626 
	C370.548187,247.809326 370.382202,258.102051 366.522217,267.925964 
	C367.446655,254.026474 368.839874,240.030762 369.857910,226.007828 
	C369.973572,224.414413 368.331757,222.226837 366.893585,221.084122 
	C363.873810,218.684692 360.447357,216.797058 357.052429,214.377625 
z"/>
<path fill="#5DB9C6" opacity="1.000000" stroke="none" 
	d="
M342.540405,313.933960 
	C340.843140,319.214661 338.740845,324.538422 336.274078,329.910156 
	C336.604431,325.650757 337.029510,321.270996 338.154572,317.079102 
	C338.502625,315.782349 340.754974,314.996674 342.540405,313.933960 
z"/>
<path fill="#59BAC7" opacity="1.000000" stroke="none" 
	d="
M518.398926,383.866882 
	C518.585510,378.000977 516.824585,372.613129 513.307495,367.629181 
	C512.638550,366.681213 513.034485,364.981750 512.993774,363.279083 
	C518.335632,368.895966 519.950623,375.875763 518.398926,383.866882 
z"/>
<path fill="#59BAC7" opacity="1.000000" stroke="none" 
	d="
M433.902649,249.527893 
	C433.390411,241.176559 432.946350,232.367355 432.827393,223.289734 
	C433.425262,231.704224 433.698029,240.387115 433.902649,249.527893 
z"/>
<path fill="#5DB9C6" opacity="1.000000" stroke="none" 
	d="
M331.582306,149.107849 
	C332.185608,157.038239 332.416840,165.205017 332.369781,173.637878 
	C331.797729,165.717377 331.503998,157.530823 331.582306,149.107849 
z"/>
<path fill="#5DB9C6" opacity="1.000000" stroke="none" 
	d="
M284.575867,375.122498 
	C285.290039,378.364258 285.649170,381.821350 285.995911,385.710083 
	C285.395966,382.540436 284.808380,378.939117 284.575867,375.122498 
z"/>
<path fill="#5DB9C6" opacity="1.000000" stroke="none" 
	d="
M323.591797,343.951874 
	C321.525085,345.270660 319.095062,346.632202 316.264709,347.984283 
	C318.319092,346.648102 320.773804,345.321381 323.591797,343.951874 
z"/>
<path fill="#59BAC7" opacity="1.000000" stroke="none" 
	d="
M365.555481,270.120728 
	C365.556061,272.557129 365.214447,275.193329 364.522125,277.933777 
	C364.518677,275.465515 364.865967,272.893005 365.555481,270.120728 
z"/>
<path fill="#5DB9C6" opacity="1.000000" stroke="none" 
	d="
M288.645447,365.031921 
	C288.164032,366.882599 287.362274,368.886017 286.226105,370.919006 
	C286.702850,369.027252 287.514008,367.105957 288.645447,365.031921 
z"/>
<path fill="#5DB9C6" opacity="1.000000" stroke="none" 
	d="
M340.640015,123.073868 
	C340.303558,124.974266 342.759735,128.194931 338.282104,128.969116 
	C338.690369,127.057495 339.505920,125.141708 340.640015,123.073868 
z"/>
<path fill="#5DB9C6" opacity="1.000000" stroke="none" 
	d="
M349.632111,308.942200 
	C349.624420,312.065369 347.602570,313.098083 344.297485,312.963165 
	C345.700439,311.634033 347.493408,310.319641 349.632111,308.942200 
z"/>
<path fill="#5DB9C6" opacity="1.000000" stroke="none" 
	d="
M286.952972,388.395630 
	C290.368256,387.688354 290.010559,390.102234 289.969360,392.698395 
	C288.976746,391.657135 287.989899,390.199738 286.952972,388.395630 
z"/>
<path fill="#5DB9C6" opacity="1.000000" stroke="none" 
	d="
M357.626953,296.061951 
	C357.177826,297.896118 356.409668,299.881866 355.275330,301.914001 
	C355.708710,300.044769 356.508301,298.129150 357.626953,296.061951 
z"/>
<path fill="#5DB9C6" opacity="1.000000" stroke="none" 
	d="
M452.063141,306.606445 
	C451.069672,305.853424 450.033112,304.764984 449.007080,303.273804 
	C450.018372,304.004425 451.019196,305.137726 452.063141,306.606445 
z"/>
<path fill="#59BAC7" opacity="1.000000" stroke="none" 
	d="
M512.950928,362.656189 
	C511.723236,361.865662 510.373169,360.776581 509.034180,359.303589 
	C510.306396,360.065674 511.567505,361.211670 512.950928,362.656189 
z"/>
<path fill="#6ABBCB" opacity="1.000000" stroke="none" 
	d="
M499.375366,399.905701 
	C501.097229,399.224548 503.214111,398.611572 505.730103,398.008728 
	C504.009583,398.670532 501.890015,399.322235 499.375366,399.905701 
z"/>
<path fill="#5DB9C6" opacity="1.000000" stroke="none" 
	d="
M464.890564,318.564819 
	C463.906952,317.554718 462.996552,316.164307 462.009338,314.460999 
	C465.173401,313.818573 465.026031,316.033508 464.890564,318.564819 
z"/>
<path fill="#5DB9C6" opacity="1.000000" stroke="none" 
	d="
M361.645599,286.051971 
	C361.608643,287.530762 361.245758,289.179993 360.527832,290.937439 
	C360.555084,289.437927 360.937408,287.830170 361.645599,286.051971 
z"/>
<path fill="#59BAC7" opacity="1.000000" stroke="none" 
	d="
M434.905823,257.557220 
	C434.560516,255.879303 434.286377,253.783127 434.027161,251.263916 
	C434.353699,252.940247 434.665375,255.039612 434.905823,257.557220 
z"/>
<path fill="#5DB9C6" opacity="1.000000" stroke="none" 
	d="
M359.667328,292.016052 
	C359.535065,293.192200 359.090057,294.521545 358.272217,295.902252 
	C358.384491,294.692139 358.869568,293.430695 359.667328,292.016052 
z"/>
<path fill="#5DB9C6" opacity="1.000000" stroke="none" 
	d="
M333.672272,333.998474 
	C333.518921,334.868927 333.060547,335.878052 332.238953,336.933838 
	C332.372925,336.032715 332.870087,335.084930 333.672272,333.998474 
z"/>
<path fill="#5DB9C6" opacity="1.000000" stroke="none" 
	d="
M354.583801,106.109634 
	C354.419830,106.648621 354.001923,107.310402 353.248169,107.961151 
	C353.384857,107.377563 353.857391,106.805000 354.583801,106.109634 
z"/>
<path fill="#5DB9C6" opacity="1.000000" stroke="none" 
	d="
M354.648590,302.038208 
	C354.512604,302.902435 354.069519,303.889587 353.270935,304.920349 
	C353.390778,304.029694 353.866119,303.095398 354.648590,302.038208 
z"/>
<path fill="#5DB9C6" opacity="1.000000" stroke="none" 
	d="
M348.662842,112.055786 
	C348.514435,112.912148 348.064819,113.892761 347.261139,114.916046 
	C347.391907,114.032494 347.876770,113.106270 348.662842,112.055786 
z"/>
<path fill="#59BAC7" opacity="1.000000" stroke="none" 
	d="
M351.923492,209.379898 
	C352.543518,209.502701 353.222961,209.973618 353.940125,210.785706 
	C353.312836,210.660583 352.647858,210.194290 351.923492,209.379898 
z"/>
<path fill="#5DB9C6" opacity="1.000000" stroke="none" 
	d="
M329.675232,339.019043 
	C329.498627,339.575653 329.042267,340.240082 328.250549,340.931122 
	C328.408600,340.347412 328.902039,339.737122 329.675232,339.019043 
z"/>
<path fill="#5DB9C6" opacity="1.000000" stroke="none" 
	d="
M285.646393,371.029236 
	C285.829163,371.467133 285.715759,372.033386 285.387085,372.801666 
	C285.231293,372.388306 285.290741,371.772949 285.646393,371.029236 
z"/>
<path fill="#5DB9C6" opacity="1.000000" stroke="none" 
	d="
M448.056519,300.666199 
	C447.752197,300.500061 447.397980,300.017395 447.029205,299.217438 
	C447.345276,299.383331 447.675934,299.866516 448.056519,300.666199 
z"/>
<path fill="#5DB9C6" opacity="1.000000" stroke="none" 
	d="
M286.128174,387.243896 
	C286.463104,387.125519 286.681641,387.348816 286.896851,387.870361 
	C286.672089,387.903320 286.378174,387.708954 286.128174,387.243896 
z"/>
<path fill="#63BAC9" opacity="1.000000" stroke="none" 
	d="
M516.246094,440.865479 
	C516.134521,440.537415 516.366638,440.318085 516.901733,440.101532 
	C516.928162,440.318390 516.723145,440.608368 516.246094,440.865479 
z"/>
<path fill="#59BAC7" opacity="1.000000" stroke="none" 
	d="
M509.000763,358.721344 
	C508.775696,358.920013 508.506683,358.787079 508.145142,358.384979 
	C508.311859,358.292358 508.613281,358.383667 509.000763,358.721344 
z"/>
<path fill="#5DB9C6" opacity="1.000000" stroke="none" 
	d="
M314.751587,348.130188 
	C314.866760,348.460327 314.639313,348.680267 314.111542,348.898468 
	C314.081451,348.677887 314.280731,348.385620 314.751587,348.130188 
z"/>
<path fill="#5DB9C6" opacity="1.000000" stroke="none" 
	d="
M461.030396,313.726929 
	C460.802521,313.923767 460.517883,313.781891 460.133606,313.357727 
	C460.303436,313.267548 460.616638,313.371796 461.030396,313.726929 
z"/>
<path fill="#5DB9C6" opacity="1.000000" stroke="none" 
	d="
M324.712769,342.988831 
	C324.781189,343.196808 324.588379,343.483002 324.152374,343.872223 
	C324.089966,343.672546 324.270782,343.369781 324.712769,342.988831 
z"/>
<path fill="#5DB9C6" opacity="1.000000" stroke="none" 
	d="
M350.696594,306.976196 
	C350.913452,307.220795 350.774414,307.503418 350.347900,307.880432 
	C350.246857,307.700348 350.340332,307.380127 350.696594,306.976196 
z"/>
<path fill="#5DB9C6" opacity="1.000000" stroke="none" 
	d="
M351.711334,108.994591 
	C351.769348,109.201653 351.563843,109.492645 351.104279,109.883240 
	C351.049408,109.681404 351.248627,109.379959 351.711334,108.994591 
z"/>
<path fill="#5DB9C6" opacity="1.000000" stroke="none" 
	d="
M349.724609,110.959534 
	C349.793152,111.158195 349.603485,111.456146 349.169739,111.869141 
	C349.105927,111.675728 349.286133,111.367271 349.724609,110.959534 
z"/>
<path fill="#5DB9C6" opacity="1.000000" stroke="none" 
	d="
M346.715454,114.989571 
	C346.780182,115.191238 346.586609,115.477638 346.151550,115.871078 
	C346.092468,115.676849 346.274841,115.375580 346.715454,114.989571 
z"/>
<path fill="#5DB9C6" opacity="1.000000" stroke="none" 
	d="
M345.720856,115.997009 
	C345.784241,116.194992 345.591980,116.479958 345.160828,116.873520 
	C345.102997,116.682747 345.284119,116.383369 345.720856,115.997009 
z"/>
<path fill="#5DB9C6" opacity="1.000000" stroke="none" 
	d="
M344.719238,117.009003 
	C344.928070,117.244865 344.791351,117.522568 344.374695,117.896080 
	C344.278046,117.722656 344.371063,117.408974 344.719238,117.009003 
z"/>
<path fill="#5DB9C6" opacity="1.000000" stroke="none" 
	d="
M343.722748,118.970810 
	C343.785767,119.167915 343.591217,119.460358 343.153473,119.865906 
	C343.095276,119.674721 343.280212,119.370438 343.722748,118.970810 
z"/>
<path fill="#5DB9C6" opacity="1.000000" stroke="none" 
	d="
M342.704346,119.995934 
	C342.924774,120.239891 342.788239,120.524277 342.365601,120.907593 
	C342.261963,120.727852 342.351227,120.404472 342.704346,119.995934 
z"/>
<path fill="#5DB9C6" opacity="1.000000" stroke="none" 
	d="
M341.730042,121.972321 
	C341.789246,122.164032 341.595306,122.458992 341.156555,122.866859 
	C341.100128,122.678368 341.288483,122.376976 341.730042,121.972321 
z"/>
<path fill="#59BAC7" opacity="1.000000" stroke="none" 
	d="
M354.944153,212.286972 
	C355.146332,212.216919 355.447906,212.406219 355.860443,212.844452 
	C355.662079,212.911026 355.352814,212.728668 354.944153,212.286972 
z"/>
<path fill="#59BAC7" opacity="1.000000" stroke="none" 
	d="
M355.988586,213.289917 
	C356.193176,213.223129 356.479156,213.414612 356.868042,213.848419 
	C356.670654,213.909882 356.370331,213.729050 355.988586,213.289917 
z"/>
<path fill="#5DB9C6" opacity="1.000000" stroke="none" 
	d="
M448.875671,301.761475 
	C448.543518,301.880463 448.321960,301.656342 448.104034,301.130920 
	C448.327911,301.097687 448.620758,301.293915 448.875671,301.761475 
z"/>
<path fill="#5DB9C6" opacity="1.000000" stroke="none" 
	d="
M352.716217,304.991455 
	C352.782684,305.199707 352.586945,305.484100 352.148193,305.871613 
	C352.088104,305.672333 352.271057,305.369995 352.716217,304.991455 
z"/>
<path fill="#5DB9C6" opacity="1.000000" stroke="none" 
	d="
M351.713440,305.985901 
	C351.776794,306.192047 351.579376,306.478699 351.135498,306.866638 
	C351.076935,306.667389 351.264801,306.366882 351.713440,305.985901 
z"/>
<path fill="#5DB9C6" opacity="1.000000" stroke="none" 
	d="
M325.766846,342.125397 
	C325.886230,342.456940 325.663116,342.678772 325.140320,342.898438 
	C325.106171,342.674072 325.300720,342.380554 325.766846,342.125397 
z"/>
<path fill="#5DB9C6" opacity="1.000000" stroke="none" 
	d="
M453.021484,307.708954 
	C452.816315,307.774658 452.526978,307.580078 452.133423,307.139862 
	C452.331909,307.079041 452.634613,307.263855 453.021484,307.708954 
z"/>
<path fill="#5DB9C6" opacity="1.000000" stroke="none" 
	d="
M454.019897,308.710144 
	C453.814148,308.775604 453.525574,308.580322 453.133118,308.139496 
	C453.331848,308.079102 453.634430,308.264252 454.019897,308.710144 
z"/>
<path fill="#5DB9C6" opacity="1.000000" stroke="none" 
	d="
M455.013367,309.714569 
	C454.812439,309.776581 454.525482,309.580505 454.132812,309.140686 
	C454.327179,309.083466 454.627289,309.269958 455.013367,309.714569 
z"/>
<path fill="#5DB9C6" opacity="1.000000" stroke="none" 
	d="
M456.016602,310.712585 
	C455.817963,310.774841 455.529419,310.580566 455.133240,310.143127 
	C455.325989,310.085327 455.626343,310.270660 456.016602,310.712585 
z"/>
<path fill="#5DB9C6" opacity="1.000000" stroke="none" 
	d="
M457.038239,311.716675 
	C456.845062,311.776123 456.548492,311.581421 456.139587,311.139771 
	C456.329803,311.082703 456.632324,311.272583 457.038239,311.716675 
z"/>
<path fill="#5DB9C6" opacity="1.000000" stroke="none" 
	d="
M459.044342,312.719238 
	C458.815399,312.926117 458.523590,312.787292 458.129028,312.358215 
	C458.300232,312.263214 458.618652,312.365112 459.044342,312.719238 
z"/>
<path fill="#5DB9C6" opacity="1.000000" stroke="none" 
	d="
M343.707458,312.978638 
	C343.774200,313.186859 343.578583,313.475006 343.137085,313.866516 
	C343.075867,313.666107 343.260437,313.362335 343.707458,312.978638 
z"/>
<path fill="#5DB9C6" opacity="1.000000" stroke="none" 
	d="
M352.714508,107.988625 
	C352.780975,108.192993 352.589294,108.480797 352.153931,108.871346 
	C352.092255,108.673416 352.274292,108.372734 352.714508,107.988625 
z"/>
<path fill="#5DB9C6" opacity="1.000000" stroke="none" 
	d="
M335.705261,329.996887 
	C335.925659,330.241974 335.787842,330.525421 335.359497,330.903931 
	C335.257965,330.724609 335.350677,330.403320 335.705261,329.996887 
z"/>
<path fill="#5DB9C6" opacity="1.000000" stroke="none" 
	d="
M334.725830,331.958099 
	C334.931763,332.186035 334.792419,332.478394 334.364380,332.875854 
	C334.270050,332.705658 334.371674,332.386200 334.725830,331.958099 
z"/>
<path fill="#5DB9C6" opacity="1.000000" stroke="none" 
	d="
M330.722656,337.966919 
	C330.784760,338.162872 330.590363,338.457703 330.150757,338.864990 
	C330.092438,338.673584 330.279297,338.369659 330.722656,337.966919 
z"/>
<path fill="#5DB9C6" opacity="1.000000" stroke="none" 
	d="
M327.714905,340.994659 
	C327.771088,341.198730 327.564667,341.487732 327.106628,341.879120 
	C327.054077,341.680878 327.253174,341.380249 327.714905,340.994659 
z"/>
<path fill="#000000" opacity="1.000000" stroke="none" 
	d="
M600.236572,545.365112 
	C608.633545,537.331299 618.592285,537.298035 627.855713,542.448120 
	C636.279846,547.131592 639.272522,557.844360 637.183960,568.747253 
	C635.407471,578.021423 629.006592,582.518250 621.348938,584.569336 
	C613.823608,586.585022 606.163391,585.171204 600.143677,578.759521 
	C594.176880,572.404236 592.690308,557.271973 597.646057,549.833252 
	C598.529419,548.507324 599.241394,547.067261 600.236572,545.365112 
z"/>
<path fill="#000000" opacity="1.000000" stroke="none" 
	d="
M331.748535,536.987732 
	C341.438782,535.877991 347.633698,540.288086 352.274445,548.541931 
	C340.391998,548.541931 328.825043,548.541931 316.607330,548.541931 
	C320.156525,542.525208 324.193604,537.867737 331.748535,536.987732 
z"/>
</svg>